# xmcd
#
# Track frame offsets:
# 150
# 16113
# 35551
# 57657
# 74568
# 88391
# 99698
# 111461
# 123301
# 133631
# 153711
# 167979
# 182490
# 192905
#
# Disc length: 2785 seconds
#
#
# Revision: 3
# Processed by: cddbd v1.5.2PL0 Copyright (c) Steve Scherf et al.
# Submitted via: FreeRIP 2.944 
#
DISCID=d10adf0e
DTITLE=TOM JOBIM - Tom Jobim - Série Gold - Special Edition - UNIVERSAL
DYEAR=2002
DGENRE=Blues
TTITLE0=Águas de Março - Ellis Regina e Tom Jobin
TTITLE1=Corcovado - Astrud e Joao Gilberto, Tom e Stam Getz
TTITLE2=Dindi (ao vivo) - Tom e Gal Costa
TTITLE3=Anos Dourados - Tom e Chico Buarque
TTITLE4=Por Causa de Voce - Tom e Nanna Caymmi
TTITLE5=Luiza - Tom e Nova Banda
TTITLE6=Falando de Amor - Tom e Miucha
TTITLE7=Ela é Carioca - Tom com Nelson Riddle e Orchestra
TTITLE8=Modinha - Ellis e Tom
TTITLE9=Se todos fossem iguais a voce - Tom Jobin com Quarteto em Cy e MPB4
TTITLE10=Eu sei que vou te amar/Saudades da Bahia - Tom e Dorival Caymmi
TTITLE11=Soneto da Separação I - Tom e Vinicius de Moraes
TTITLE12=Água de Beber - Tom e Astrud Gilberto
TTITLE13=Só danço samba - Tom com Joao Gilberto e Stan Getz
EXTD=YEAR: 2002  ID3G:   0
EXTT0=
EXTT1=
EXTT2=
EXTT3=
EXTT4=
EXTT5=
EXTT6=
EXTT7=
EXTT8=
EXTT9=
EXTT10=
EXTT11=
EXTT12=
EXTT13=
PLAYORDER=
